<svg xmlns="http://www.w3.org/2000/svg" fill-rule="evenodd" clip-rule="evenodd" image-rendering="optimizeQuality" shape-rendering="geometricPrecision" text-rendering="geometricPrecision" viewBox="0 0 800 800"><path fill="currentColor" d="M408.5 9.5h233v785h-138v-678c-31.356-.411-62.69.089-94 1.5q-51.8835 4.782-93 36c-25.776 23.052-40.276 51.886-43.5 86.5-5.736 59.463 11.597 110.796 52 154 20.721 19.731 42.888 37.564 66.5 53.5 24.877 16.599 49.544 33.432 74 50.5-65.804 98.969-131.804 197.803-198 296.5q-75 1.0005-150 0c59.333-88.333 118.667-176.667 178-265-37.57-26.231-71.403-56.731-101.5-91.5q-59.259-76.5255-58.5-174c3.786-126.942 66.786-207.4423 189-241.5q41.6445-10.33815 84-13.5"/></svg>
